<?xml version="1.0" standalone="no"?>
<!DOCTYPE svg PUBLIC "-//W3C//DTD SVG 20010904//EN"
 "http://www.w3.org/TR/2001/REC-SVG-20010904/DTD/svg10.dtd">
<svg version="1.0" xmlns="http://www.w3.org/2000/svg"
 width="4096.000000pt" height="4096.000000pt" viewBox="0 0 4096.000000 4096.000000"
 preserveAspectRatio="xMidYMid meet">

<g transform="translate(0.000000,4096.000000) scale(0.100000,-0.100000)"
fill="#000000" stroke="none">
<path d="M0 20480 l0 -20480 20480 0 20480 0 0 20480 0 20480 -20480 0 -20480
0 0 -20480z m28775 10114 c388 -7 459 -13 463 -34 3 -19 -70 -43 -135 -44 -23
-1 -44 -4 -46 -6 -9 -9 5 -70 16 -70 26 0 47 -34 47 -77 0 -40 2 -43 26 -43
14 0 32 -6 40 -14 17 -17 19 -46 3 -46 -6 0 -9 -9 -6 -20 3 -11 0 -23 -5 -26
-6 -4 -4 -11 7 -17 14 -8 15 -11 4 -18 -12 -7 -11 -9 1 -10 8 0 4 -5 -10 -9
-24 -8 -24 -8 -2 -9 33 -2 27 -21 -8 -21 -16 0 -30 -4 -30 -10 0 -5 14 -10 30
-10 17 0 30 -4 30 -10 0 -5 -9 -10 -21 -10 -19 0 -19 -1 -5 -16 9 -8 16 -17
16 -18 0 -12 -37 -74 -52 -88 -14 -12 -19 -30 -20 -67 0 -37 -4 -51 -14 -51
-19 0 -18 -29 1 -36 22 -9 20 -54 -3 -54 -21 0 -51 -42 -33 -48 6 -2 11 -15
11 -28 0 -13 6 -24 13 -24 21 0 9 -57 -13 -63 -17 -4 -19 -16 -19 -108 0 -68
4 -106 12 -112 9 -7 9 -10 0 -14 -8 -2 -13 -22 -13 -44 0 -32 -3 -39 -20 -39
-16 0 -20 -7 -20 -32 0 -18 0 -48 0 -67 1 -19 -5 -39 -12 -43 -10 -7 -10 -11
-1 -14 7 -3 9 -12 6 -20 -3 -7 2 -17 11 -20 18 -7 23 -88 6 -99 -13 -8 -13
-52 -1 -59 5 -4 9 -27 9 -52 0 -34 -3 -43 -11 -35 -6 6 -15 11 -19 11 -14 0
-8 -23 10 -36 14 -10 15 -15 5 -25 -11 -10 -13 -10 -13 0 0 7 -5 9 -11 5 -8
-5 -4 -12 10 -23 13 -10 24 -32 27 -51 4 -33 4 -34 -11 -16 -15 19 -15 19 -15
-5 0 -13 4 -30 9 -38 6 -8 3 -20 -8 -31 -33 -35 -51 -61 -51 -73 0 -7 -5 -18
-12 -25 -9 -9 -9 -12 0 -12 14 0 17 -46 3 -54 -4 -3 -6 -36 -3 -74 4 -60 2
-71 -16 -88 -11 -10 -23 -29 -26 -41 -4 -13 -13 -23 -20 -23 -9 0 -12 -16 -10
-60 3 -49 1 -60 -12 -60 -10 0 -14 -6 -10 -15 3 -10 -1 -18 -12 -22 -34 -13
-42 -31 -42 -92 0 -51 -2 -59 -16 -54 -13 5 -15 1 -10 -18 3 -13 3 -18 0 -11
-10 22 -22 12 -29 -25 -4 -21 -12 -41 -18 -45 -9 -6 -9 -8 1 -8 15 0 16 -37 1
-42 -5 -2 -11 -11 -13 -20 -1 -10 -5 -21 -9 -24 -4 -4 -7 -18 -7 -31 0 -12 -4
-23 -10 -23 -5 0 -10 5 -10 10 0 6 -4 10 -10 10 -5 0 -10 -7 -10 -15 0 -8 -4
-15 -10 -15 -5 0 -10 -8 -10 -17 1 -17 1 -17 11 0 9 16 49 25 49 11 0 -3 -13
-19 -30 -34 -16 -15 -30 -33 -30 -40 0 -14 -25 -40 -39 -40 -24 0 -61 -44 -61
-72 0 -15 -4 -28 -10 -28 -5 0 -10 -7 -10 -16 0 -20 -32 -53 -37 -38 -7 21
-53 -8 -53 -34 0 -12 -7 -25 -15 -28 -8 -4 -15 -13 -15 -21 0 -17 -24 -43 -40
-43 -31 0 -40 -29 -40 -134 0 -59 -4 -106 -9 -106 -6 0 -10 -92 -12 -217 -1
-120 -3 -236 -5 -258 -7 -87 -12 -359 -15 -725 -3 -462 -9 -578 -29 -590 -12
-8 -12 -10 4 -10 12 0 16 -5 12 -15 -3 -8 1 -35 8 -60 13 -42 13 -46 -5 -55
-13 -8 -19 -7 -19 0 0 7 -8 7 -22 -2 -18 -9 -298 -13 -1254 -16 l-1231 -3 -7
283 c-7 321 2 5044 10 5155 l6 72 146 4 c233 5 2513 -2 2877 -9z m1843 -15577
c8 3 12 -6 12 -26 0 -17 4 -31 9 -31 5 0 11 -9 14 -20 4 -14 14 -20 35 -20 17
0 33 6 35 13 3 6 6 3 6 -7 1 -20 1 -20 16 0 8 10 15 31 15 47 0 15 4 27 9 27
10 0 22 -84 19 -130 0 -14 2 -196 6 -405 4 -209 8 -1230 10 -2268 l2 -1888
-2564 2 -2565 1 7 1062 c8 1023 17 1374 30 1154 2 -27 11 -43 25 -43 4 0 16
-8 26 -19 18 -17 18 -19 2 -31 -9 -7 -17 -20 -17 -29 0 -13 4 -15 19 -6 11 5
27 7 35 4 12 -4 16 0 16 15 0 12 5 21 12 21 9 0 9 3 0 12 -17 17 -15 36 8 60
19 21 21 42 7 65 -10 16 17 29 78 37 28 4 61 9 75 11 74 12 217 14 993 15 466
1 847 5 847 10 0 4 18 11 40 15 25 4 40 12 40 21 0 8 5 14 10 14 6 0 10 7 10
15 0 8 -4 15 -10 15 -5 0 -10 -7 -10 -16 0 -12 -7 -14 -32 -9 -18 4 -35 11
-38 15 -3 4 -12 9 -20 12 -11 4 -7 9 13 18 15 8 27 21 27 32 0 13 12 21 45 30
35 10 45 17 45 33 0 12 5 26 11 32 9 9 6 10 -12 6 -22 -6 -23 -5 -10 11 17 20
7 33 -13 16 -13 -10 -15 -7 -13 19 2 25 6 31 25 31 32 0 52 23 52 60 0 22 9
40 29 59 28 27 71 103 71 128 0 7 4 13 10 13 5 0 16 15 24 33 l15 32 -4 -50
c-2 -40 1 -53 18 -67 11 -10 22 -18 24 -18 2 0 3 32 2 70 -1 39 1 73 4 76 3 4
6 184 7 402 0 226 4 400 10 407 5 6 10 56 11 110 1 55 5 102 8 105 8 7 41 66
41 74 0 3 -7 6 -15 6 -8 0 -15 5 -15 10 0 6 9 10 20 10 11 0 21 6 21 13 1 6 3
19 4 27 1 8 3 30 4 49 1 25 5 32 16 27 11 -4 15 2 15 25 0 26 3 29 25 23 15
-4 25 -2 25 5 0 6 -7 11 -15 11 -8 0 -15 7 -15 15 0 8 7 15 15 15 8 0 17 14
21 35 7 39 17 49 59 59 30 8 65 37 65 55 0 14 29 22 64 18 17 -2 23 -2 14 0
-10 2 -18 8 -18 12 0 15 71 41 111 41 32 0 42 4 46 20 3 11 12 20 19 20 8 0
13 -3 12 -7 -4 -12 10 -13 34 -3 18 7 19 9 6 9 -30 1 -20 18 14 25 21 4 35 2
40 -6 6 -10 11 -8 19 6 9 15 13 16 20 5 7 -11 9 -10 9 4 0 11 8 17 24 17 13 0
27 6 29 13 4 9 7 9 14 0 5 -7 24 -13 43 -15 19 -1 37 -5 40 -10 3 -4 24 -1 45
6 38 13 134 30 108 19 -22 -8 -14 -24 10 -18 50 11 162 13 174 3 10 -8 13 -6
13 6 0 9 5 16 10 16 6 0 10 -7 10 -16 0 -14 2 -15 17 -3 19 16 164 21 174 6 4
-5 12 0 18 12 13 24 31 28 31 7 0 -11 9 -11 43 -4 86 19 107 20 124 7 13 -11
17 -11 20 -1 6 15 37 16 64 2 13 -7 19 -7 19 0 0 12 77 14 82 1 2 -4 21 -11
43 -14 22 -3 32 -3 23 -1 -28 8 -21 24 11 24 18 0 35 -8 45 -22 10 -13 15 -16
12 -7 -4 14 1 15 37 7 23 -5 48 -9 55 -10 6 -1 12 -5 12 -10 0 -5 9 -6 20 -3
12 4 28 1 37 -7 13 -10 17 -10 20 0 6 17 23 15 23 -3 0 -8 -5 -15 -12 -15 -6
0 -8 -3 -4 -7 4 -4 16 3 26 17 l19 25 18 -22 18 -22 32 31 c29 28 35 30 58 20
55 -25 75 -12 75 49 0 25 3 28 18 21 9 -5 23 -7 30 -5z m-2451 -1804 c-3 -10
-5 -4 -5 12 0 17 2 24 5 18 2 -7 2 -21 0 -30z m-2421 -690 c-10 -10 -19 5 -10
18 6 11 8 11 12 0 2 -7 1 -15 -2 -18z"/>
<path d="M29030 30496 c0 -8 4 -17 9 -20 5 -4 7 3 4 14 -6 23 -13 26 -13 6z"/>
<path d="M28906 28363 c-12 -12 -6 -43 9 -43 8 0 15 9 15 19 0 21 -13 34 -24
24z"/>
<path d="M28600 27629 c0 -5 5 -7 10 -4 6 3 10 8 10 11 0 2 -4 4 -10 4 -5 0
-10 -5 -10 -11z"/>
<path d="M28598 27603 c7 -3 16 -2 19 1 4 3 -2 6 -13 5 -11 0 -14 -3 -6 -6z"/>
<path d="M28921 14904 c-22 -22 -23 -24 -5 -24 23 0 44 18 44 37 0 18 -11 15
-39 -13z"/>
<path d="M30728 14873 c7 -3 16 -2 19 1 4 3 -2 6 -13 5 -11 0 -14 -3 -6 -6z"/>
<path d="M28450 14704 c0 -8 5 -12 10 -9 6 3 10 10 10 16 0 5 -4 9 -10 9 -5 0
-10 -7 -10 -16z"/>
<path d="M28425 14667 c-4 -10 -5 -21 -1 -24 10 -10 18 4 13 24 -4 17 -4 17
-12 0z"/>
<path d="M28430 14595 c0 -8 5 -15 10 -15 6 0 10 7 10 15 0 8 -4 15 -10 15 -5
0 -10 -7 -10 -15z"/>
<path d="M28160 13120 c20 -13 33 -13 25 0 -3 6 -14 10 -23 10 -15 0 -15 -2
-2 -10z"/>
<path d="M25810 12369 c0 -5 5 -7 10 -4 6 3 10 8 10 11 0 2 -4 4 -10 4 -5 0
-10 -5 -10 -11z"/>
</g>
</svg>
